<?xml version="1.0" standalone="no"?>
<!DOCTYPE svg PUBLIC "-//W3C//DTD SVG 20010904//EN"
 "http://www.w3.org/TR/2001/REC-SVG-20010904/DTD/svg10.dtd">
<svg version="1.0" xmlns="http://www.w3.org/2000/svg"
 width="963.000000pt" height="963.000000pt" viewBox="0 0 963.000000 963.000000"
 preserveAspectRatio="xMidYMid meet">
<metadata>
Created by potrace 1.14, written by Peter Selinger 2001-2017
</metadata>
<g transform="translate(0.000000,963.000000) scale(0.100000,-0.100000)"
fill="#000000" stroke="none">
<path d="M6667 8544 c-1 -1 -33 -4 -72 -8 -202 -17 -370 -77 -578 -203 l-58
-35 -52 16 c-51 16 -133 33 -199 41 -18 2 -62 8 -98 12 -80 10 -478 10 -580 1
-166 -16 -313 -54 -438 -114 -66 -32 -289 -167 -302 -183 -5 -7 -18 -14 -100
-62 -109 -63 -123 -70 -196 -94 -40 -13 -99 -27 -131 -31 -75 -10 -289 -9
-423 1 -171 13 -220 7 -287 -31 -45 -26 -97 -75 -142 -133 -14 -19 -35 -44
-46 -56 -24 -25 -57 -64 -110 -129 -35 -43 -40 -55 -42 -108 -5 -137 -37 -233
-127 -372 -72 -111 -154 -207 -306 -357 -122 -119 -130 -126 -186 -138 -84
-19 -220 -68 -284 -103 -62 -34 -178 -118 -260 -189 -30 -26 -82 -71 -115 -99
-77 -66 -291 -230 -301 -230 -4 0 -17 -8 -28 -18 -18 -16 -221 -144 -314 -197
-17 -11 -51 -49 -74 -85 -23 -36 -45 -67 -48 -70 -3 -3 -114 -167 -245 -365
-132 -198 -253 -379 -270 -401 -16 -23 -39 -54 -50 -70 -11 -16 -59 -81 -107
-145 l-88 -117 16 -133 c89 -787 384 -1522 870 -2164 111 -147 141 -182 141
-164 1 21 72 249 91 289 39 86 111 140 207 155 78 13 527 5 645 -11 19 -3 53
-7 75 -9 131 -13 333 -74 475 -143 78 -38 261 -150 280 -171 3 -4 44 -38 91
-78 97 -81 98 -82 161 -142 l47 -44 40 16 c51 21 171 54 281 77 353 76 677 23
1125 -184 63 -30 89 -37 130 -35 62 4 147 23 200 46 77 33 233 148 365 270 25
23 60 55 79 71 l35 30 30 -23 c17 -12 57 -38 89 -56 32 -19 66 -38 75 -44 53
-31 87 -63 120 -113 31 -47 50 -63 118 -99 116 -61 180 -60 255 5 19 16 68 41
109 55 102 35 140 48 175 62 165 67 593 209 692 230 22 4 56 31 110 87 105
108 139 131 346 237 164 84 315 167 327 181 3 3 23 14 45 24 78 34 91 40 160
80 197 111 347 258 388 381 21 60 21 85 2 85 -8 0 -15 -4 -15 -8 0 -27 -114
-118 -255 -203 -49 -29 -92 -54 -95 -54 -3 -1 -25 -12 -50 -25 -64 -34 -135
-59 -210 -74 -61 -11 -97 -12 -210 -6 -25 1 -72 -5 -105 -14 -111 -30 -260
-79 -269 -87 -6 -5 -16 -9 -23 -9 -12 0 -193 -85 -241 -114 -12 -7 -41 -30
-64 -52 -42 -39 -43 -39 -128 -40 -66 -1 -105 -8 -176 -32 -126 -43 -176 -54
-268 -58 -68 -3 -187 11 -269 31 -13 4 -31 7 -40 9 -9 1 -30 12 -47 24 -35 26
-33 36 24 112 61 81 78 120 66 150 -12 31 -7 40 18 33 39 -9 230 -91 278 -118
54 -32 173 -40 247 -18 47 14 207 80 249 103 10 6 24 10 32 10 8 0 18 10 22
23 15 50 68 83 205 131 77 26 242 73 289 82 14 2 31 7 38 9 10 4 121 17 142
17 51 1 72 -6 100 -32 18 -16 36 -30 40 -30 14 0 98 99 124 147 14 25 40 86
57 137 17 50 40 109 50 131 24 51 103 136 198 211 41 32 126 110 190 173 64
62 166 156 226 208 61 52 145 131 187 176 77 82 187 227 171 227 -4 0 0 5 10
11 9 5 17 17 17 24 0 8 4 15 8 15 11 0 12 5 16 140 2 85 0 118 -10 127 -7 8
-11 20 -8 28 4 8 1 15 -6 15 -6 0 -9 4 -5 9 3 5 1 12 -5 16 -6 4 -8 10 -5 15
7 12 -20 19 -36 9 -8 -5 -9 -9 -3 -9 7 0 10 -13 7 -32 -2 -18 -5 -41 -6 -50
-1 -10 -6 -18 -12 -18 -5 0 -3 -5 5 -10 11 -8 12 -12 3 -18 -7 -4 -15 -19 -17
-32 -2 -14 -5 -27 -6 -30 -2 -3 -2 -8 -1 -12 0 -5 -4 -8 -10 -8 -5 0 -7 -5 -4
-10 3 -6 -12 -29 -34 -53 -22 -23 -69 -80 -103 -127 -39 -52 -82 -98 -113
-118 -46 -32 -54 -34 -110 -29 -33 3 -73 9 -90 12 -145 33 -244 -11 -415 -185
-69 -70 -112 -125 -157 -201 -100 -169 -174 -234 -326 -287 -31 -11 -57 -19
-57 -16 0 2 -12 -1 -26 -7 -15 -5 -43 -12 -63 -15 -20 -2 -49 -8 -66 -11 -46
-10 -46 -10 -118 -17 -37 -4 -76 -9 -85 -11 -45 -8 -224 -28 -244 -27 -9 0
-30 11 -47 23 -32 23 -105 29 -140 9 -34 -18 -133 -40 -156 -34 -12 3 -29 18
-38 33 -15 26 -20 28 -54 22 -82 -15 -167 4 -352 76 -116 45 -262 99 -271 101
-3 0 -12 3 -20 6 -8 2 -44 12 -79 20 -36 9 -67 19 -70 23 -26 35 -176 130
-304 193 -59 29 -112 59 -118 66 -18 22 118 7 359 -41 13 -2 31 -6 40 -9 9 -3
32 -8 51 -11 63 -11 155 -46 216 -83 97 -59 128 -51 350 97 72 48 123 103 130
141 11 61 23 97 53 153 31 58 48 76 121 129 47 34 94 71 106 81 38 34 50 43
110 82 33 22 89 54 125 71 76 38 263 94 311 94 132 0 197 80 214 260 4 36 9
73 11 83 3 10 1 23 -4 30 -5 7 -20 44 -33 82 -20 60 -24 90 -24 210 0 165 12
361 25 384 4 9 18 25 29 35 12 11 21 25 21 33 0 7 4 13 9 13 11 0 56 111 66
165 5 22 10 47 11 55 3 15 12 71 21 140 3 19 6 142 6 272 l2 237 37 36 c20 20
42 52 48 70 7 22 26 45 52 62 23 16 49 42 59 59 24 44 51 183 48 256 -1 52 7
87 45 198 84 240 84 338 4 533 -38 94 -59 128 -142 231 -144 182 -348 285
-661 336 -83 13 -310 30 -318 24z m-877 -347 c0 -1 -44 -48 -97 -103 -114
-116 -130 -135 -181 -211 -78 -115 -148 -276 -177 -403 -1 -5 -17 -81 -31
-145 -13 -62 -13 -270 1 -327 59 -255 188 -449 405 -615 132 -100 278 -166
440 -199 53 -11 436 -13 468 -3 15 5 63 21 107 35 198 65 315 144 580 397 44
42 83 77 88 77 6 0 10 -11 9 -30 -1 -66 -19 -128 -60 -208 -60 -119 -80 -141
-128 -148 -41 -5 -99 -52 -133 -109 -18 -29 -44 -120 -56 -195 -3 -19 -10 -57
-15 -85 -5 -27 -12 -63 -15 -80 -3 -16 -7 -41 -10 -55 -3 -14 -8 -41 -11 -60
-6 -34 -34 -142 -52 -205 -18 -59 -64 -137 -100 -168 -19 -18 -50 -46 -66 -63
-34 -33 -152 -124 -163 -124 -3 0 -21 -11 -39 -25 -18 -14 -35 -25 -38 -25 -3
0 -24 -13 -48 -29 -62 -41 -259 -143 -358 -186 -47 -20 -94 -40 -105 -45 -32
-14 -329 -113 -340 -113 -29 0 -331 15 -354 18 -14 2 -64 6 -111 10 -47 4 -88
9 -91 11 -4 2 -24 6 -45 10 -96 14 -173 57 -291 158 -24 20 -54 39 -93 57 -55
25 -67 29 -190 55 -14 3 -52 9 -85 14 -33 5 -145 41 -250 80 -104 39 -208 78
-231 86 -23 7 -59 21 -80 31 -21 9 -41 17 -44 18 -3 1 -16 6 -30 12 -14 6 -54
23 -90 38 -112 46 -233 114 -278 154 -30 28 -61 74 -103 156 -33 65 -73 136
-88 159 -82 118 -81 194 4 496 19 68 38 126 42 129 12 9 63 89 63 100 0 5 3
11 8 13 11 5 81 156 97 208 17 59 122 254 193 360 69 103 83 118 132 143 48
24 197 68 285 83 23 5 144 36 220 58 27 8 57 21 135 59 72 35 101 57 189 145
56 57 100 106 97 109 -13 14 80 168 135 222 106 105 246 164 494 205 95 16
124 20 335 41 36 4 66 7 67 8 3 4 83 8 83 4z m-364 -5250 c94 -47 179 -69 231
-61 54 9 80 9 138 2 67 -9 184 -39 190 -49 10 -16 -148 -152 -200 -173 -77
-31 -123 -11 -245 104 -41 39 -114 97 -162 128 -49 31 -88 59 -88 63 0 9 38
17 66 13 12 -1 43 -13 70 -27z"/>
</g>
</svg>
